<svg width="56" height="56" viewBox="0 0 56 56" fill="none" xmlns="http://www.w3.org/2000/svg">
<path d="M19.4665 2.95862C19.4296 0.875001 22.2057 0.131067 23.2156 1.95395L32.5359 18.7768C32.8945 19.424 33.581 19.8203 34.3208 19.8072L53.5499 19.4664C55.6335 19.4295 56.3775 22.2056 54.5546 23.2156L37.7318 32.5358C37.0846 32.8944 36.6882 33.5809 36.7013 34.3207L37.0421 53.5498C37.079 55.6334 34.3029 56.3774 33.293 54.5545L23.9727 37.7317C23.6142 37.0845 22.9276 36.6881 22.1878 36.7012L2.95872 37.042C0.875094 37.079 0.131159 34.3028 1.95404 33.2929L18.7769 23.9726C19.4241 23.6141 19.8204 22.9275 19.8073 22.1877L19.4665 2.95862Z" fill="#5C24FF"/>
</svg>
