<svg width="41" height="41" viewBox="0 0 41 41" fill="none" xmlns="http://www.w3.org/2000/svg">
<path d="M24.5127 0.638413C25.014 -0.27506 26.4036 0.0913065 26.3893 1.13318L26.1815 16.3169C26.1764 16.6869 26.376 17.0293 26.7003 17.2073L40.0128 24.5127C40.9263 25.0139 40.5599 26.4035 39.518 26.3892L24.3343 26.1814C23.9643 26.1764 23.6219 26.3759 23.4439 26.7003L16.1385 40.0127C15.6373 40.9262 14.2477 40.5598 14.262 39.518L14.4698 24.3342C14.4748 23.9643 14.2753 23.6218 13.951 23.4438L0.638482 16.1385C-0.274991 15.6372 0.0913752 14.2476 1.13325 14.2619L16.317 14.4697C16.6869 14.4748 17.0294 14.2752 17.2074 13.9509L24.5127 0.638413Z" fill="#B79EFF"/>
</svg>
