<svg width="122" height="67" viewBox="0 0 122 67" fill="none" xmlns="http://www.w3.org/2000/svg">
<g clip-path="url(#clip0_1_119)">
<path fill-rule="evenodd" clip-rule="evenodd" d="M75.4457 51.5754C68.4018 56.7643 58.1936 59.5407 49.3918 59.5407C37.062 59.5407 25.9688 54.9822 17.567 47.3927C16.9123 46.7986 17.4943 45.9864 18.2944 46.4471C27.3509 51.7209 38.5653 54.8852 50.1313 54.8852C57.939 54.8852 66.5226 53.2727 74.4152 49.9144C75.6154 49.4174 76.6096 50.7025 75.4457 51.5754Z" fill="#FF9900"/>
<path fill-rule="evenodd" clip-rule="evenodd" d="M78.3678 48.2172C77.4707 47.0654 72.4151 47.6716 70.1479 47.9383C69.4569 48.0232 69.3478 47.417 69.9782 46.9927C74.0033 44.1557 80.6107 44.9802 81.3866 45.9258C82.1625 46.8836 81.1805 53.5031 77.3979 56.6674C76.816 57.1524 76.2583 56.8978 76.525 56.2552C77.3737 54.1336 79.2771 49.3811 78.3678 48.2172Z" fill="#FF9900"/>
<path fill-rule="evenodd" clip-rule="evenodd" d="M70.3052 26.9885V24.2364C70.3052 23.8242 70.6204 23.5453 70.9963 23.5453H83.3261C83.7262 23.5453 84.0414 23.8363 84.0414 24.2364V26.6005C84.0414 27.0006 83.7019 27.5098 83.1079 28.3342L76.7308 37.4512C79.107 37.3906 81.6167 37.7422 83.7626 38.9546C84.2475 39.2334 84.3809 39.6335 84.4172 40.0215V42.9554C84.4172 43.3555 83.9687 43.8283 83.508 43.5858C79.7132 41.5975 74.6698 41.3793 70.475 43.6101C70.0506 43.8404 69.6021 43.3797 69.6021 42.9796V40.1912C69.6021 39.7426 69.6021 38.9788 70.0506 38.2999L77.4582 27.6795H71.0205C70.6204 27.6795 70.3052 27.4007 70.3052 26.9885Z" fill="#111111"/>
<path fill-rule="evenodd" clip-rule="evenodd" d="M25.3144 44.18H21.5682C21.2045 44.1558 20.9256 43.8891 20.9014 43.5375V24.285C20.9014 23.897 21.2287 23.5939 21.6288 23.5939H25.1325C25.4963 23.6061 25.7872 23.8849 25.8115 24.2365V26.7582H25.8842C26.7935 24.3214 28.5151 23.1939 30.8186 23.1939C33.1706 23.1939 34.6375 24.3335 35.6923 26.7582C36.6016 24.3214 38.6626 23.1939 40.8691 23.1939C42.4452 23.1939 44.1668 23.8485 45.2094 25.3034C46.3976 26.928 46.1551 29.28 46.1551 31.341V43.489C46.1551 43.8769 45.8277 44.18 45.4277 44.18H41.6814C41.3056 44.1558 41.0025 43.8527 41.0025 43.489V33.2808C41.0025 32.4685 41.0752 30.4438 40.8934 29.6679C40.6145 28.3707 39.778 28.007 38.6869 28.007C37.7776 28.007 36.8319 28.6132 36.444 29.5831C36.056 30.553 36.0924 32.1775 36.0924 33.2687V43.4769C36.0924 43.8648 35.765 44.1679 35.365 44.1679H31.6309C31.255 44.1437 30.9519 43.8406 30.9519 43.4769V33.2687C30.9519 31.1228 31.3035 27.9585 28.6363 27.9585C25.9448 27.9585 26.0418 31.0379 26.0418 33.2687V43.4769C26.0418 43.8648 25.7145 44.18 25.3144 44.18Z" fill="#111111"/>
<path fill-rule="evenodd" clip-rule="evenodd" d="M94.674 23.182C100.239 23.182 103.258 27.9588 103.258 34.0449C103.258 39.9128 99.9236 44.5804 94.674 44.5804C89.2062 44.5804 86.2359 39.8036 86.2359 33.8388C86.2238 27.8497 89.2426 23.182 94.674 23.182ZM94.6982 27.1222C91.934 27.1222 91.7643 30.8806 91.7643 33.2326C91.7643 35.5846 91.7279 40.6159 94.674 40.6159C97.5837 40.6159 97.717 36.5666 97.717 34.0934C97.717 32.4688 97.6443 30.529 97.1593 28.9893C96.735 27.6436 95.8985 27.1222 94.6982 27.1222Z" fill="#111111"/>
<path fill-rule="evenodd" clip-rule="evenodd" d="M110.471 44.1803H106.737C106.361 44.1561 106.058 43.853 106.058 43.4893V24.2247C106.094 23.8731 106.398 23.5942 106.786 23.5942H110.265C110.592 23.6064 110.859 23.8367 110.932 24.1277V27.0737H111.005C112.059 24.4429 113.526 23.182 116.121 23.182C117.806 23.182 119.443 23.7882 120.497 25.4492C121.479 26.9889 121.479 29.5833 121.479 31.4383V43.562C121.443 43.9015 121.128 44.1682 120.752 44.1682H116.994C116.654 44.1439 116.363 43.8893 116.327 43.562V33.1114C116.327 31.0018 116.569 27.9224 113.975 27.9224C113.066 27.9224 112.217 28.5286 111.805 29.4621C111.271 30.6381 111.211 31.8141 111.211 33.1114V43.4771C111.199 43.8651 110.871 44.1803 110.471 44.1803Z" fill="#111111"/>
<path fill-rule="evenodd" clip-rule="evenodd" d="M60.4728 34.9782C60.4728 36.4452 60.5092 37.6576 59.7697 38.9548C59.1756 40.0096 58.2178 40.6642 57.1752 40.6642C55.7325 40.6642 54.8959 39.561 54.8959 37.9485C54.8959 34.7479 57.7571 34.1659 60.485 34.1659L60.4728 34.9782ZM64.2554 44.1195C64.013 44.3377 63.6493 44.362 63.3704 44.2044C62.1217 43.1738 61.9034 42.6889 61.2124 41.7069C59.1514 43.8043 57.6965 44.4347 55.0293 44.4347C51.865 44.4347 49.416 42.4828 49.416 38.5911C49.416 35.548 51.0648 33.4749 53.4168 32.4565C55.4536 31.5593 58.3027 31.4017 60.4728 31.1471V30.6622C60.4728 29.765 60.5456 28.7102 60.0121 27.9464C59.5636 27.2554 58.6785 26.9644 57.9026 26.9644C56.472 26.9644 55.199 27.704 54.8838 29.2194C54.8232 29.5589 54.5686 29.8862 54.2291 29.9105L50.592 29.5225C50.2889 29.4498 49.9373 29.2073 50.0343 28.7345C50.883 24.3336 54.8717 23 58.4361 23C60.2667 23 62.643 23.4849 64.0857 24.867C65.9164 26.5765 65.7345 28.8436 65.7345 31.3168V37.1605C65.7345 38.9184 66.462 39.6943 67.153 40.64C67.3955 40.9795 67.444 41.3795 67.1409 41.6341C66.3771 42.2888 65.0192 43.4769 64.2554 44.1195Z" fill="#111111"/>
<path fill-rule="evenodd" clip-rule="evenodd" d="M11.2868 34.9782C11.2868 36.4452 11.3232 37.6576 10.5836 38.9548C9.98958 40.0096 9.04393 40.6643 7.98916 40.6643C6.54644 40.6643 5.7099 39.561 5.7099 37.9486C5.7099 34.7479 8.5711 34.1659 11.2868 34.1659V34.9782ZM15.0694 44.1195C14.8269 44.3378 14.4632 44.362 14.1844 44.2044C12.9356 43.1739 12.7174 42.6889 12.0264 41.7069C9.96533 43.8043 8.51048 44.4347 5.84326 44.4347C2.6911 44.4347 0.22998 42.4828 0.22998 38.5911C0.22998 35.5481 1.87881 33.4749 4.23081 32.4565C6.26759 31.5593 9.11667 31.4017 11.2868 31.1471V30.6622C11.2868 29.765 11.3596 28.7103 10.8382 27.9465C10.3775 27.2554 9.50463 26.9645 8.72871 26.9645C7.29811 26.9645 6.02512 27.704 5.7099 29.2195C5.64928 29.5589 5.39469 29.8863 5.05522 29.9105L1.41811 29.5226C1.11501 29.4498 0.775548 29.2073 0.860414 28.7345C1.69695 24.3336 5.68566 23 9.25003 23C11.0807 23 13.457 23.4849 14.8997 24.8671C16.7304 26.5765 16.5485 28.8436 16.5485 31.3169V37.1605C16.5485 38.9184 17.2759 39.6944 17.967 40.64C18.2095 40.9795 18.258 41.3796 17.9549 41.6342C17.1911 42.2888 15.8332 43.477 15.0694 44.1195Z" fill="#111111"/>
</g>
<defs>
<clipPath id="clip0_1_119">
<rect width="121.237" height="67" fill="white" transform="translate(0.22998)"/>
</clipPath>
</defs>
</svg>
