<svg width="125" height="25" viewBox="0 0 125 25" fill="none" xmlns="http://www.w3.org/2000/svg">
<path d="M17.542 12.811C17.542 16.8529 14.2364 20.1627 10.1176 20.1627C5.99884 20.1627 2.69317 16.8529 2.69317 12.811C2.69317 8.76915 5.99884 5.45941 10.1176 5.45941C14.2364 5.45941 17.542 8.76915 17.542 12.811Z" stroke="#D3D3D3" stroke-width="5.38635"/>
<path d="M32.3911 12.811C32.3911 16.8529 29.0854 20.1627 24.9666 20.1627C20.8479 20.1627 17.5422 16.8529 17.5422 12.811C17.5422 8.76915 20.8479 5.45941 24.9666 5.45941C29.0854 5.45941 32.3911 8.76915 32.3911 12.811Z" stroke="white" stroke-width="5.38635"/>
<mask id="path-3-inside-1_1_256" fill="white">
<path d="M14.8487 12.811C14.8487 11.4919 15.1104 10.1858 15.6189 8.96706C16.1274 7.74837 16.8726 6.64104 17.8121 5.70829C18.7516 4.77555 19.867 4.03565 21.0945 3.53085C22.322 3.02605 23.6377 2.76624 24.9663 2.76624L24.9663 8.11134C24.3447 8.11134 23.7291 8.2329 23.1548 8.46908C22.5805 8.70526 22.0586 9.05144 21.6191 9.48785C21.1795 9.92426 20.8308 10.4424 20.5929 11.0125C20.355 11.5827 20.2326 12.1939 20.2326 12.811H14.8487Z"/>
<path d="M20.2351 12.811C20.2351 14.1302 19.9734 15.4363 19.4649 16.655C18.9565 17.8737 18.2112 18.9811 17.2717 19.9138C16.3322 20.8465 15.2168 21.5864 13.9893 22.0912C12.7618 22.596 11.4461 22.8559 10.1175 22.8559V17.5108C10.7391 17.5108 11.3547 17.3892 11.929 17.153C12.5033 16.9168 13.0252 16.5707 13.4648 16.1342C13.9043 15.6978 14.253 15.1797 14.4909 14.6095C14.7288 14.0394 14.8513 13.4282 14.8513 12.811H20.2351Z"/>
</mask>
<path d="M14.8487 12.811V18.1974H9.46239L9.46239 12.811L14.8487 12.811ZM24.9663 2.76624L24.9663 -2.62011L30.3527 -2.62011L30.3527 2.76624L24.9663 2.76624ZM24.9663 8.11134L30.3527 8.11134L30.3527 13.4977L24.9663 13.4977L24.9663 8.11134ZM20.2326 12.811L25.6189 12.811L25.6189 18.1974H20.2326V12.811ZM20.2351 12.811V7.4247H25.6214L25.6214 12.811L20.2351 12.811ZM10.1175 22.8559L10.1175 28.2422L4.73114 28.2422V22.8559H10.1175ZM10.1175 17.5108H4.73114V12.1244L10.1175 12.1244L10.1175 17.5108ZM14.8513 12.811L9.4649 12.811L9.4649 7.4247L14.8513 7.4247V12.811ZM9.46239 12.811C9.46239 10.7792 9.86554 8.76813 10.6478 6.89307L20.5899 11.0411C20.3553 11.6034 20.2351 12.2047 20.2351 12.811L9.46239 12.811ZM10.6478 6.89307C11.4301 5.01809 12.5757 3.31697 14.0172 1.88584L21.6071 9.53074C21.1696 9.9651 20.8246 10.4787 20.5899 11.0411L10.6478 6.89307ZM14.0172 1.88584C15.4586 0.454794 17.1677 -0.678332 19.0459 -1.45072L23.1431 8.51242C22.5663 8.74963 22.0447 9.0963 21.6071 9.53074L14.0172 1.88584ZM19.0459 -1.45072C20.9241 -2.22308 22.9357 -2.62011 24.9663 -2.62011L24.9663 8.15258C24.3396 8.15258 23.72 8.27518 23.1431 8.51242L19.0459 -1.45072ZM30.3527 2.76624L30.3527 8.11134L19.58 8.11134L19.58 2.76624L30.3527 2.76624ZM24.9663 13.4977C25.0467 13.4977 25.1271 13.482 25.2034 13.4507L21.1062 3.48751C22.3312 2.98377 23.6427 2.72499 24.9663 2.72499L24.9663 13.4977ZM25.2034 13.4507C25.2798 13.4192 25.3517 13.3722 25.414 13.3103L17.8241 5.6654C18.7656 4.73069 19.8812 3.99128 21.1062 3.48751L25.2034 13.4507ZM25.414 13.3103C25.4764 13.2483 25.528 13.1726 25.564 13.0865L15.6219 8.93855C16.1336 7.71206 16.8825 6.60019 17.8241 5.6654L25.414 13.3103ZM25.564 13.0865C25.5999 13.0004 25.6189 12.9066 25.6189 12.811L14.8462 12.811C14.8462 11.4811 15.1101 10.1651 15.6219 8.93855L25.564 13.0865ZM20.2326 18.1974H14.8487V7.4247H20.2326V18.1974ZM25.6214 12.811C25.6214 14.8429 25.2183 16.854 24.436 18.729L14.4939 14.581C14.7285 14.0187 14.8487 13.4174 14.8487 12.811L25.6214 12.811ZM24.436 18.729C23.6537 20.604 22.5082 22.3051 21.0667 23.7363L13.4768 16.0914C13.9143 15.657 14.2592 15.1434 14.4939 14.581L24.436 18.729ZM21.0667 23.7363C19.6252 25.1673 17.9161 26.3004 16.0379 27.0728L11.9407 17.1097C12.5176 16.8725 13.0392 16.5258 13.4768 16.0914L21.0667 23.7363ZM16.0379 27.0728C14.1598 27.8452 12.1481 28.2422 10.1175 28.2422L10.1175 17.4695C10.7442 17.4695 11.3638 17.3469 11.9407 17.1097L16.0379 27.0728ZM4.73114 22.8559V17.5108H15.5038V22.8559H4.73114ZM10.1175 12.1244C10.0372 12.1244 9.95673 12.1401 9.88043 12.1714L13.9776 22.1346C12.7527 22.6383 11.4411 22.8971 10.1175 22.8971L10.1175 12.1244ZM9.88043 12.1714C9.80406 12.2029 9.73216 12.2499 9.66982 12.3118L17.2597 19.9567C16.3182 20.8914 15.2026 21.6308 13.9776 22.1346L9.88043 12.1714ZM9.66982 12.3118C9.60739 12.3738 9.55579 12.4495 9.51987 12.5356L19.462 16.6835C18.9503 17.91 18.2013 19.0219 17.2597 19.9567L9.66982 12.3118ZM9.51987 12.5356C9.48392 12.6217 9.4649 12.7155 9.4649 12.811L20.2376 12.811C20.2376 14.141 19.9737 15.457 19.462 16.6835L9.51987 12.5356ZM14.8513 7.4247H20.2351V18.1974H14.8513V7.4247Z" fill="url(#paint0_linear_1_256)" mask="url(#path-3-inside-1_1_256)"/>
<mask id="path-5-inside-2_1_256" fill="white">
<path d="M20.2349 12.811C20.2349 11.4919 19.9732 10.1858 19.4648 8.96706C18.9563 7.74837 18.211 6.64104 17.2715 5.70829C16.332 4.77555 15.2167 4.03565 13.9891 3.53085C12.7616 3.02605 11.446 2.76624 10.1173 2.76624L10.1173 8.11134C10.739 8.11134 11.3545 8.2329 11.9288 8.46908C12.5032 8.70526 13.025 9.05144 13.4646 9.48785C13.9042 9.92426 14.2528 10.4424 14.4907 11.0125C14.7286 11.5827 14.8511 12.1939 14.8511 12.811H20.2349Z"/>
<path d="M14.8486 12.811C14.8486 14.1302 15.1103 15.4363 15.6187 16.655C16.1272 17.8737 16.8724 18.9811 17.8119 19.9138C18.7514 20.8465 19.8668 21.5864 21.0943 22.0912C22.3218 22.596 23.6375 22.8559 24.9662 22.8559V17.5108C24.3445 17.5108 23.729 17.3892 23.1546 17.153C22.5803 16.9168 22.0585 16.5707 21.6189 16.1342C21.1793 15.6978 20.8306 15.1797 20.5927 14.6095C20.3548 14.0394 20.2324 13.4282 20.2324 12.811H14.8486Z"/>
</mask>
<path d="M20.2349 12.811V18.1974H25.6213L25.6213 12.811L20.2349 12.811ZM10.1173 2.76624L10.1173 -2.62011L4.73096 -2.62011L4.73096 2.76624L10.1173 2.76624ZM10.1173 8.11134L4.73096 8.11134L4.73096 13.4977L10.1173 13.4977L10.1173 8.11134ZM14.8511 12.811L9.46473 12.811L9.46473 18.1974H14.8511V12.811ZM14.8486 12.811V7.4247H9.46221L9.46221 12.811L14.8486 12.811ZM24.9662 22.8559L24.9662 28.2422L30.3525 28.2422V22.8559H24.9662ZM24.9662 17.5108H30.3525V12.1244L24.9662 12.1244L24.9662 17.5108ZM20.2324 12.811L25.6187 12.811L25.6187 7.4247L20.2324 7.4247V12.811ZM25.6213 12.811C25.6213 10.7792 25.2181 8.76813 24.4358 6.89307L14.4937 11.0411C14.7283 11.6034 14.8486 12.2047 14.8486 12.811L25.6213 12.811ZM24.4358 6.89307C23.6535 5.01809 22.508 3.31697 21.0665 1.88584L13.4766 9.53074C13.9141 9.9651 14.2591 10.4787 14.4937 11.0411L24.4358 6.89307ZM21.0665 1.88584C19.6251 0.454794 17.916 -0.678332 16.0377 -1.45072L11.9406 8.51242C12.5174 8.74963 13.039 9.0963 13.4766 9.53074L21.0665 1.88584ZM16.0377 -1.45072C14.1596 -2.22308 12.1479 -2.62011 10.1173 -2.62011L10.1173 8.15258C10.744 8.15258 11.3637 8.27518 11.9406 8.51242L16.0377 -1.45072ZM4.73096 2.76624L4.73096 8.11134L15.5037 8.11134L15.5037 2.76624L4.73096 2.76624ZM10.1173 13.4977C10.037 13.4977 9.95655 13.482 9.88026 13.4507L13.9774 3.48751C12.7525 2.98377 11.4409 2.72499 10.1173 2.72499L10.1173 13.4977ZM9.88026 13.4507C9.80389 13.4192 9.73198 13.3722 9.66964 13.3103L17.2595 5.6654C16.3181 4.73069 15.2025 3.99128 13.9774 3.48751L9.88026 13.4507ZM9.66964 13.3103C9.60722 13.2483 9.55561 13.1726 9.51969 13.0865L19.4618 8.93855C18.9501 7.71206 18.2011 6.60019 17.2595 5.6654L9.66964 13.3103ZM9.51969 13.0865C9.48374 13.0004 9.46473 12.9066 9.46473 12.811L20.2374 12.811C20.2374 11.4811 19.9735 10.1651 19.4618 8.93855L9.51969 13.0865ZM14.8511 18.1974H20.2349V7.4247H14.8511V18.1974ZM9.46221 12.811C9.46221 14.8429 9.86537 16.854 10.6477 18.729L20.5898 14.581C20.3552 14.0187 20.2349 13.4174 20.2349 12.811L9.46221 12.811ZM10.6477 18.729C11.4299 20.604 12.5755 22.3051 14.017 23.7363L21.6069 16.0914C21.1694 15.657 20.8244 15.1434 20.5898 14.581L10.6477 18.729ZM14.017 23.7363C15.4584 25.1673 17.1675 26.3004 19.0457 27.0728L23.1429 17.1097C22.5661 16.8725 22.0445 16.5258 21.6069 16.0914L14.017 23.7363ZM19.0457 27.0728C20.9239 27.8452 22.9355 28.2422 24.9662 28.2422L24.9662 17.4695C24.3395 17.4695 23.7198 17.3469 23.1429 17.1097L19.0457 27.0728ZM30.3525 22.8559V17.5108H19.5798V22.8559H30.3525ZM24.9662 12.1244C25.0465 12.1244 25.1269 12.1401 25.2032 12.1714L21.106 22.1346C22.331 22.6383 23.6425 22.8971 24.9662 22.8971L24.9662 12.1244ZM25.2032 12.1714C25.2796 12.2029 25.3515 12.2499 25.4138 12.3118L17.8239 19.9567C18.7654 20.8914 19.881 21.6308 21.106 22.1346L25.2032 12.1714ZM25.4138 12.3118C25.4763 12.3738 25.5279 12.4495 25.5638 12.5356L15.6217 16.6835C16.1334 17.91 16.8824 19.0219 17.8239 19.9567L25.4138 12.3118ZM25.5638 12.5356C25.5997 12.6217 25.6187 12.7155 25.6187 12.811L14.846 12.811C14.846 14.141 15.1099 15.457 15.6217 16.6835L25.5638 12.5356ZM20.2324 7.4247H14.8486V18.1974H20.2324V7.4247Z" fill="url(#paint1_linear_1_256)" mask="url(#path-5-inside-2_1_256)"/>
<path d="M42.6857 20.9251V4.33444H46.4495V20.9251H42.6857Z" fill="white"/>
<path d="M48.4813 20.9251V4.33444H52.8529L56.1049 13.5681C56.2258 13.9306 56.3395 14.2967 56.4461 14.6663C56.5527 15.0288 56.6665 15.3558 56.7873 15.6472H56.9686C56.8833 15.3558 56.8157 15.0217 56.766 14.645C56.7162 14.2611 56.6913 13.9235 56.6913 13.632V4.33444H60.8923V20.9251H56.6274L53.3114 11.9154C53.1621 11.5031 53.0235 11.0944 52.8955 10.6892C52.7676 10.284 52.6787 9.9393 52.629 9.65497H52.3731C52.4797 9.91797 52.5579 10.2272 52.6077 10.5826C52.6574 10.9309 52.6823 11.2294 52.6823 11.4782L52.693 20.9251H48.4813Z" fill="white"/>
<path d="M62.8922 20.9251V4.33444H71.0915V8.11958H66.56V11.3396H70.5158V14.7409H66.56V20.9251H62.8922Z" fill="white"/>
<path d="M72.1104 20.9251V4.33444H75.7889V17.076H81.3227V20.9251H72.1104Z" fill="white"/>
<path d="M81.5419 13.9626V4.33444H85.2631V14.4104C85.2631 15.6828 85.4053 16.582 85.6896 17.108C85.981 17.634 86.3755 17.897 86.8731 17.897C87.456 17.897 87.8647 17.634 88.0993 17.108C88.3339 16.5748 88.4512 15.6757 88.4512 14.4104V4.33444H93.6011V13.9626C93.6011 16.5002 93.0999 18.3448 92.0977 19.4963C91.1025 20.6479 89.656 21.2236 87.7581 21.2236C85.6825 21.2236 84.1258 20.6408 83.088 19.475C82.0573 18.3022 81.5419 16.4647 81.5419 13.9626Z" fill="white"/>
<path d="M99.6373 20.9251L104.702 4.28113H109.852L114.863 20.9251H110.79L108.157 9.99616C108.064 9.66207 107.968 9.32799 107.869 8.9939C107.776 8.6527 107.709 8.3897 107.666 8.20488H107.602C107.545 8.3897 107.467 8.65626 107.367 9.00456C107.268 9.35287 107.176 9.67985 107.09 9.9855L104.681 20.9251H99.6373ZM103.071 18.0569L103.924 14.8262H111.078L111.963 18.0569H103.071Z" fill="white"/>
<path d="M115.274 20.9251V4.33444H119.038V20.9251H115.274Z" fill="white"/>
<path d="M120.619 2.13539C120.695 1.70435 120.919 1.35007 121.29 1.07257C121.66 0.793924 122.095 0.654602 122.595 0.654602C123.095 0.654602 123.482 0.793924 123.756 1.07257C124.03 1.35007 124.129 1.70435 124.053 2.13539C123.978 2.56644 123.754 2.92128 123.381 3.19992C123.009 3.47857 122.573 3.61789 122.073 3.61789C121.573 3.61789 121.187 3.47857 120.914 3.19992C120.642 2.92128 120.544 2.56644 120.619 2.13539ZM121.121 2.13539C121.059 2.46635 121.122 2.73874 121.31 2.95256C121.499 3.16524 121.771 3.27158 122.125 3.27158C122.479 3.27158 122.79 3.16524 123.059 2.95256C123.327 2.73874 123.492 2.46635 123.553 2.13539C123.616 1.80671 123.553 1.53603 123.364 1.32335C123.176 1.10953 122.906 1.00262 122.552 1.00262C122.197 1.00262 121.885 1.10953 121.617 1.32335C121.349 1.53603 121.183 1.80671 121.121 2.13539ZM122.301 2.36399H122.076L121.967 2.95256H121.503L121.796 1.29264H122.514C122.784 1.29264 122.971 1.33415 123.074 1.41718C123.177 1.5002 123.214 1.63383 123.183 1.81808C123.162 1.92385 123.112 2.01768 123.035 2.09957C122.957 2.18032 122.851 2.24003 122.714 2.2787C122.737 2.29234 122.755 2.30827 122.769 2.32646C122.782 2.34352 122.794 2.36456 122.804 2.38958L123.04 2.9065L123.03 2.95256H122.533L122.301 2.36399ZM122.453 1.64236H122.199L122.131 2.01597H122.385C122.492 2.01597 122.571 2.00119 122.622 1.97162C122.674 1.94205 122.707 1.89258 122.719 1.8232C122.731 1.75951 122.715 1.71345 122.673 1.68501C122.632 1.65658 122.559 1.64236 122.453 1.64236Z" fill="white"/>
<defs>
<linearGradient id="paint0_linear_1_256" x1="21.4725" y1="7.35191" x2="19.0705" y2="11.0641" gradientUnits="userSpaceOnUse">
<stop stop-color="white"/>
<stop offset="1" stop-color="#D3D3D3"/>
</linearGradient>
<linearGradient id="paint1_linear_1_256" x1="13.6112" y1="7.35191" x2="21.4723" y2="20.5266" gradientUnits="userSpaceOnUse">
<stop stop-color="#D3D3D3"/>
<stop offset="1" stop-color="white"/>
</linearGradient>
</defs>
</svg>
