<svg width="115" height="67" viewBox="0 0 115 67" fill="none" xmlns="http://www.w3.org/2000/svg">
<g clip-path="url(#clip0_1_134)">
<path d="M44.5827 23.048H48.7825L55.9238 35.966L63.0649 23.048H67.1739V44.2746H63.7473V28.006L57.4855 39.2713H54.2711L48.0093 28.006V44.2746H44.5827V23.048Z" fill="#111111"/>
<path d="M78.2266 44.6538C76.6395 44.6538 75.2447 44.3026 74.0419 43.6001C72.839 42.8976 71.9015 41.9247 71.2294 40.6814C70.5571 39.4381 70.221 38.0129 70.2211 36.4058C70.2211 34.7785 70.5496 33.3381 71.2066 32.0846C71.8636 30.8314 72.7759 29.8509 73.9434 29.1431C75.1109 28.4357 76.4527 28.082 77.9688 28.0818C79.4748 28.0818 80.7712 28.4381 81.8579 29.1506C82.9443 29.8634 83.7807 30.8616 84.3671 32.1452C84.9533 33.429 85.2464 34.9351 85.2465 36.6635V37.6034H73.6174C73.8297 38.8974 74.3528 39.9158 75.1867 40.6585C76.0206 41.4015 77.0743 41.773 78.3479 41.7729C79.3687 41.7729 80.2481 41.6213 80.986 41.3181C81.7238 41.0148 82.4162 40.555 83.0633 39.9384L84.8827 42.1672C83.0731 43.8251 80.8544 44.6539 78.2266 44.6538ZM80.7283 32.0617C80.0105 31.329 79.0705 30.9626 77.9082 30.9625C76.776 30.9625 75.8284 31.3365 75.0654 32.0846C74.3021 32.8326 73.8194 33.8383 73.6174 35.1018H81.9565C81.8553 33.8079 81.4459 32.7946 80.7283 32.0617Z" fill="#111111"/>
<path d="M89.4012 31.2658H86.2475V28.4608H89.4012V23.8214H92.7065V28.4608H97.4976V31.2658H92.7065V38.3767C92.7065 39.5592 92.9086 40.4032 93.3129 40.9086C93.7171 41.4142 94.4095 41.6669 95.3902 41.6667C95.8246 41.6667 96.1935 41.649 96.497 41.6137C96.8002 41.5784 97.1337 41.5304 97.4976 41.4696V44.2442C97.0824 44.3643 96.6594 44.4555 96.2316 44.5172C95.7421 44.5892 95.248 44.6247 94.7533 44.6233C91.1851 44.6233 89.4011 42.6725 89.4012 38.7709V31.2658Z" fill="#111111"/>
<path d="M114.722 44.2747H111.477V42.061C110.901 42.89 110.168 43.5293 109.279 43.979C108.389 44.4286 107.378 44.6536 106.246 44.6538C104.852 44.6538 103.616 44.2975 102.539 43.5848C101.463 42.8722 100.616 41.8918 99.9998 40.6435C99.3831 39.3951 99.0748 37.9674 99.0749 36.3603C99.0749 34.743 99.3882 33.3127 100.015 32.0693C100.642 30.8262 101.508 29.8508 102.615 29.1431C103.722 28.4358 104.993 28.082 106.428 28.0818C107.51 28.0818 108.48 28.2916 109.339 28.7111C110.187 29.1211 110.921 29.7328 111.477 30.4925V28.4609H114.722V44.2747ZM111.417 33.995C111.063 33.0954 110.504 32.3852 109.741 31.8646C108.978 31.3441 108.096 31.0839 107.096 31.0839C105.68 31.0839 104.553 31.5589 103.714 32.509C102.875 33.4592 102.456 34.7429 102.456 36.3602C102.456 37.9877 102.86 39.2765 103.669 40.2265C104.477 41.1767 105.574 41.6518 106.959 41.6517C107.98 41.6517 108.89 41.3889 109.688 40.8632C110.487 40.3379 111.063 39.6303 111.417 38.7406V33.995Z" fill="#111111"/>
<path d="M28.0264 22.3305C25.271 22.3305 23.117 24.4058 21.1672 27.0421C18.4878 23.6305 16.247 22.3305 13.5654 22.3305C8.09827 22.3305 3.90936 29.4455 3.90936 36.9763C3.90936 41.6888 6.18921 44.6611 10.0079 44.6611C12.7564 44.6611 14.7331 43.3653 18.2471 37.2227C18.2471 37.2227 19.7119 34.6359 20.7197 32.854C21.0728 33.4241 21.4447 34.0385 21.8354 34.697L23.4832 37.4691C26.6932 42.8407 28.4817 44.6611 31.7224 44.6611C35.4426 44.6611 37.513 41.6482 37.513 36.8377C37.513 28.9527 33.2296 22.3305 28.0264 22.3305ZM15.5675 35.5595C12.7184 40.0256 11.7328 41.0266 10.1465 41.0266C8.51408 41.0266 7.54385 39.5935 7.54385 37.0379C7.54385 31.5708 10.2697 25.9804 13.5192 25.9804C15.2789 25.9804 16.7494 26.9967 19.0018 30.2213C16.863 33.5019 15.5675 35.5595 15.5675 35.5595ZM26.3202 34.9972L24.35 31.7113C23.8168 30.8442 23.3044 30.046 22.8128 29.3168C24.5885 26.5761 26.0533 25.2104 27.7953 25.2104C31.4144 25.2104 34.3097 30.5389 34.3097 37.0841C34.3097 39.579 33.4926 41.0266 31.7994 41.0266C30.1767 41.0266 29.4014 39.9549 26.3202 34.9972Z" fill="#111111"/>
</g>
<defs>
<clipPath id="clip0_1_134">
<rect width="114" height="67" fill="white" transform="translate(0.684265)"/>
</clipPath>
</defs>
</svg>
