<svg width="124" height="67" viewBox="0 0 124 67" fill="none" xmlns="http://www.w3.org/2000/svg">
<g clip-path="url(#clip0_1_144)">
<path fill-rule="evenodd" clip-rule="evenodd" d="M84.2963 20H89.1288V47.5202H84.2963V20ZM123.249 31.6054V27.3387H118.291V21.792H113.458V42.0588C113.458 43.9362 113.917 45.3442 114.833 46.2828C115.75 47.2215 117.124 47.6909 118.999 47.6909H123.249V43.4242H120.124C119.457 43.4242 118.958 43.2535 118.666 42.9548C118.416 42.6988 118.249 41.9735 118.249 41.2055V31.6054H123.249ZM51.593 42.1441L56.5506 27.296H61.5915L54.4259 47.4775H48.7185L41.5529 27.3387H46.5938L51.593 42.1441ZM105.626 37.4081C105.626 38.6881 105.418 39.7975 105.085 40.6935C104.71 41.5895 104.168 42.3148 103.502 42.7842C102.835 43.2535 102.002 43.4668 101.044 43.4668C99.6689 43.4668 98.6274 42.9975 97.9608 42.1015C97.2942 41.1628 96.9193 39.7975 96.9193 37.9628V27.296H92.0867V38.4748C92.0867 40.2241 92.295 41.7175 92.7116 42.8695C93.1282 44.0642 93.7115 45.0028 94.4197 45.7282C95.1279 46.4535 95.9611 46.9655 96.9193 47.2642C97.8358 47.5629 98.8357 47.7335 99.8772 47.7335C101.377 47.7335 102.627 47.4349 103.585 46.9228C104.46 46.4108 105.168 45.8135 105.751 45.1735L106.168 47.5202H110.376V27.3387H105.543V37.4081H105.626ZM76.9224 28.3627C75.4226 27.5094 73.5896 27.0827 71.5899 27.0827C69.5902 27.0827 67.7988 27.5094 66.2574 28.3627C64.716 29.2161 63.5078 30.4534 62.6746 31.9894C61.8414 33.5254 61.4248 35.3601 61.4248 37.4081C61.4248 39.4561 61.8414 41.2481 62.6746 42.7842C63.5078 44.3202 64.716 45.5575 66.2574 46.4108C67.7988 47.2642 69.5902 47.6909 71.5899 47.6909C73.6312 47.6909 75.4226 47.2642 76.9224 46.4108C78.4222 45.5575 79.6303 44.3202 80.4635 42.7842C81.2967 41.2481 81.7133 39.4135 81.7133 37.4081C81.7133 35.3601 81.2967 33.5254 80.4635 31.9894C79.672 30.4534 78.4638 29.2587 76.9224 28.3627ZM74.3811 42.7842C73.5896 43.2962 72.6731 43.5522 71.5899 43.5522C70.5067 43.5522 69.5902 43.2962 68.7987 42.7842C68.0071 42.2722 67.3822 41.5468 66.9656 40.6081C66.549 39.6695 66.2991 38.6028 66.2991 37.4081C66.2991 36.1708 66.5074 35.1041 66.9656 34.2081C67.3822 33.3121 68.0071 32.5441 68.7987 32.0321C69.5902 31.5201 70.5067 31.2214 71.5899 31.2214C72.6731 31.2214 73.6312 31.4774 74.3811 32.0321C75.1727 32.5441 75.7559 33.3121 76.2142 34.2081C76.6308 35.1041 76.8807 36.2134 76.8807 37.4081C76.8807 38.6028 76.6724 39.6695 76.2142 40.6081C75.7976 41.5468 75.1727 42.2722 74.3811 42.7842ZM5.68349 26.784H0.684265V47.4775H5.68349V26.784ZM21.3894 27.9787C21.3894 23.584 17.8899 20 13.5989 20H0.684265V24.4374H12.974C14.932 24.4374 16.5151 26.016 16.5568 27.9361C16.5568 28.9174 16.2235 29.8134 15.557 30.4961C14.8904 31.1361 14.0155 31.5201 13.099 31.5201H8.30808C8.14144 31.5201 8.01646 31.6481 8.01646 31.8187V35.7868C8.01646 35.8721 8.01646 35.9148 8.05812 35.9574L16.1819 47.4775H22.1393L13.9739 35.9148C18.0566 35.7441 21.3894 32.2027 21.3894 27.9787ZM36.762 28.2774C35.3039 27.5094 33.5958 27.0827 31.6794 27.0827C29.7631 27.0827 28.0133 27.5094 26.5552 28.3627C25.0555 29.2161 23.9306 30.4534 23.0974 31.9894C22.2642 33.5254 21.8893 35.3601 21.8893 37.4508C21.8893 39.4988 22.3059 41.2908 23.1391 42.8268C23.9723 44.3628 25.1805 45.6002 26.6802 46.4108C28.2216 47.2642 30.0547 47.6909 32.1377 47.6909C33.8041 47.6909 35.2622 47.3922 36.5537 46.7522C37.8451 46.1122 38.8867 45.2588 39.6365 44.1922C40.3864 43.1682 40.8863 42.0588 41.1363 40.8215L41.178 40.6935H36.3037L36.2621 40.7788C36.0121 41.7175 35.4705 42.4428 34.7623 42.9548C33.9708 43.5095 32.9709 43.8082 31.8461 43.8082C30.8879 43.8082 30.013 43.5948 29.2632 43.1682C28.5133 42.7415 27.93 42.1441 27.5134 41.4188C27.0968 40.6508 26.8885 39.7548 26.8052 38.7308V38.5601H41.2613V38.4748C41.3029 38.1761 41.3446 37.8775 41.3446 37.6215C41.3446 37.3228 41.3446 37.0668 41.3446 36.7681C41.3029 34.8054 40.8863 33.0988 40.0948 31.6481C39.3449 30.1547 38.1784 29.0454 36.762 28.2774ZM35.0123 32.0747C35.8455 32.8001 36.3454 33.7814 36.5537 35.0614H27.0135C27.1385 34.2508 27.3884 33.5254 27.805 32.9281C28.2633 32.2881 28.8049 31.8187 29.5131 31.4774C30.1797 31.1361 30.9296 30.9654 31.7211 30.9654C33.0542 30.9654 34.1374 31.3494 35.0123 32.0747Z" fill="#111111"/>
</g>
<defs>
<clipPath id="clip0_1_144">
<rect width="122.564" height="67" fill="white" transform="translate(0.684265)"/>
</clipPath>
</defs>
</svg>
