<svg width="47" height="67" viewBox="0 0 47 67" fill="none" xmlns="http://www.w3.org/2000/svg">
<path d="M38.6798 41.6638C33.1036 39.0232 32.2149 34.9462 32.1754 34.6438C32.1275 34.2775 32.0732 33.9895 32.4863 33.6169C32.8847 33.2569 34.652 32.1868 35.1424 31.852C35.9529 31.2976 36.3098 30.7441 36.0467 30.0637C35.8627 29.593 35.4147 29.4157 34.9427 29.4157C34.7938 29.4162 34.6455 29.4325 34.5002 29.4643C33.6096 29.6533 32.7448 30.0898 32.2444 30.2077C32.1842 30.2229 32.1225 30.2311 32.0604 30.232C31.7936 30.232 31.6924 30.1159 31.7181 29.8018C31.7807 28.8496 31.9132 26.9911 31.7595 25.255C31.5488 22.8664 30.7613 21.6829 29.8275 20.6362C29.3758 20.1286 27.2782 17.9479 23.2302 17.9479C19.1822 17.9479 17.0874 20.1286 16.6384 20.6299C15.7018 21.6766 14.9152 22.8601 14.7064 25.2487C14.5528 26.9848 14.6908 28.8424 14.7478 29.7955C14.7662 30.0943 14.6724 30.2257 14.4056 30.2257C14.3435 30.2247 14.2817 30.2165 14.2216 30.2014C13.722 30.0835 12.8572 29.647 11.9666 29.458C11.8214 29.4262 11.673 29.4099 11.5241 29.4094C11.0503 29.4094 10.6041 29.5894 10.4201 30.0574C10.157 30.7378 10.5121 31.2913 11.3254 31.8457C11.8158 32.1805 13.5831 33.2497 13.9814 33.6106C14.3936 33.9832 14.3402 34.2712 14.2924 34.6375C14.2528 34.9444 13.3632 39.0214 7.788 41.6575C7.4614 41.8123 6.90572 42.1399 7.88552 42.6691C9.42376 43.5007 10.4477 43.4116 11.2435 43.9129C11.9188 44.3386 11.5195 45.2566 12.0108 45.5878C12.6143 45.9955 14.3982 45.559 16.7028 46.3033C18.6348 46.9261 19.8087 48.6856 23.2348 48.6856C26.6609 48.6856 27.8688 46.918 29.7668 46.3033C32.0668 45.559 33.8544 45.9955 34.4588 45.5878C34.9492 45.2566 34.5508 44.3386 35.2261 43.9129C36.0219 43.4116 37.0449 43.5007 38.5841 42.6691C39.562 42.1462 39.0064 41.8186 38.6798 41.6638Z" fill="#111111"/>
<path d="M41.1057 41.3532C40.8555 40.6872 40.3789 40.3308 39.8361 40.0356C39.734 39.9771 39.6401 39.9303 39.5601 39.8943C39.3982 39.8124 39.2326 39.7332 39.0679 39.6495C37.376 38.772 36.0549 37.665 35.1386 36.3528C34.8784 35.9834 34.6527 35.5918 34.4642 35.1828C34.386 34.9641 34.3897 34.8399 34.4458 34.7265C34.5015 34.6392 34.5751 34.5641 34.662 34.506C34.9527 34.3179 35.2527 34.1271 35.456 33.9984C35.8185 33.7689 36.1055 33.5871 36.2904 33.4584C36.985 32.9832 37.4708 32.4783 37.7744 31.914C37.9862 31.5242 38.1097 31.0942 38.1366 30.6535C38.1634 30.2128 38.0929 29.7715 37.9299 29.3598C37.4699 28.1754 36.3263 27.4401 34.9408 27.4401C34.6485 27.4399 34.3571 27.47 34.0714 27.5301C33.995 27.5463 33.9187 27.5634 33.8441 27.5823C33.857 26.7723 33.8386 25.9173 33.765 25.0758C33.5037 22.1175 32.4448 20.5668 31.3408 19.3302C30.6339 18.5553 29.8011 17.8997 28.8761 17.3898C27.2008 16.4538 25.301 15.9786 23.2301 15.9786C21.1592 15.9786 19.2686 16.4538 17.5914 17.3898C16.6642 17.8999 15.8298 18.5568 15.1221 19.3338C14.0181 20.5704 12.9592 22.1238 12.6979 25.0794C12.6243 25.9209 12.6059 26.7804 12.6179 27.5859C12.5434 27.567 12.4679 27.5499 12.3916 27.5337C12.1059 27.4736 11.8144 27.4435 11.5222 27.4437C10.1357 27.4437 8.99035 28.179 8.53219 29.3634C8.36842 29.7753 8.29722 30.2169 8.32341 30.6581C8.3496 31.0993 8.47258 31.5298 8.68399 31.9203C8.98851 32.4846 9.47427 32.9895 10.1689 33.4647C10.3529 33.5907 10.6408 33.7725 11.0033 34.0047C11.1993 34.1289 11.4854 34.3107 11.766 34.4925C11.8642 34.5546 11.9476 34.6366 12.0107 34.7328C12.0696 34.8507 12.0714 34.9776 11.984 35.2116C11.7981 35.612 11.5761 35.9955 11.3207 36.3573C10.4246 37.6398 9.14214 38.727 7.50455 39.5973C6.63699 40.0473 5.73539 40.3479 5.35451 41.3604C5.06747 42.1245 5.25515 42.9939 5.98471 43.7265C6.25246 44 6.56302 44.23 6.90471 44.4078C7.61567 44.7901 8.37168 45.0859 9.15594 45.2889C9.31779 45.3298 9.47144 45.397 9.61042 45.4878C9.87631 45.7155 9.83858 46.0584 10.1928 46.5606C10.3706 46.8202 10.5965 47.0449 10.8589 47.223C11.6022 47.7252 12.4376 47.7567 13.3226 47.79C14.1221 47.8197 15.0283 47.8539 16.0633 48.1878C16.492 48.3264 16.9373 48.5946 17.4534 48.9078C18.6927 49.653 20.3891 50.6727 23.2283 50.6727C26.0674 50.6727 27.7758 49.6476 29.0243 48.8997C29.5367 48.5919 29.9792 48.3264 30.396 48.1914C31.431 47.8566 32.3372 47.8233 33.1367 47.7936C34.0217 47.7603 34.8571 47.7288 35.6004 47.2266C35.9111 47.0147 36.17 46.7381 36.3585 46.4166C36.6133 45.9927 36.6069 45.6966 36.8461 45.4896C36.9765 45.4031 37.1208 45.3387 37.273 45.2988C38.068 45.0952 38.8343 44.7966 39.5546 44.4096C39.9176 44.2191 40.2444 43.9689 40.5206 43.6698L40.5298 43.659C41.2143 42.9426 41.3863 42.0984 41.1057 41.3532ZM38.5821 42.6798C37.043 43.5114 36.0199 43.4223 35.2241 43.9236C34.5479 44.3493 34.9481 45.2673 34.4569 45.5985C33.8533 46.0062 32.0695 45.5697 29.7649 46.314C27.8641 46.9287 26.6516 48.6963 23.2329 48.6963C19.8141 48.6963 18.6301 46.9323 16.6981 46.3095C14.3981 45.5652 12.6105 46.0017 12.0061 45.594C11.5157 45.2628 11.9141 44.3448 11.2388 43.9191C10.4421 43.4178 9.41907 43.5069 7.88083 42.6798C6.90103 42.1506 7.45671 41.823 7.78331 41.6682C13.3585 39.0276 14.2481 34.9506 14.2877 34.6482C14.3355 34.2819 14.3889 33.9939 13.9767 33.6213C13.5784 33.2613 11.8111 32.1912 11.3207 31.8564C10.5093 31.302 10.1523 30.7485 10.4154 30.0681C10.5994 29.5974 11.0484 29.4201 11.5194 29.4201C11.6683 29.4206 11.8167 29.4369 11.9619 29.4687C12.8525 29.6577 13.7173 30.0942 14.2169 30.2121C14.277 30.2272 14.3388 30.2354 14.4009 30.2364C14.6677 30.2364 14.7615 30.105 14.7431 29.8062C14.6861 28.8531 14.5481 26.9955 14.7017 25.2594C14.9124 22.8708 15.699 21.6873 16.6337 20.6406C17.0827 20.1375 19.1922 17.9568 23.2264 17.9568C27.2606 17.9568 29.3757 20.1285 29.8247 20.6298C30.7603 21.6765 31.5478 22.86 31.7567 25.2486C31.9103 26.9847 31.7778 28.8432 31.7153 29.7954C31.6941 30.1095 31.7907 30.2256 32.0575 30.2256C32.1196 30.2247 32.1814 30.2165 32.2415 30.2013C32.742 30.0834 33.6068 29.6469 34.4973 29.4579C34.6426 29.4261 34.791 29.4098 34.9399 29.4093C35.4137 29.4093 35.8599 29.5893 36.0439 30.0573C36.307 30.7377 35.9519 31.2912 35.1395 31.8456C34.6491 32.1804 32.8818 33.2496 32.4835 33.6105C32.0704 33.9831 32.1247 34.2711 32.1725 34.6374C32.2121 34.9443 33.1008 39.0213 38.6769 41.6574C39.0063 41.8185 39.5619 42.1461 38.5821 42.6798Z" fill="#111111"/>
</svg>
