<svg width="83" height="67" viewBox="0 0 83 67" fill="none" xmlns="http://www.w3.org/2000/svg">
<g clip-path="url(#clip0_1_128)">
<path d="M8.90737 29.7611L9.34772 20.5137H3.62312L3.54973 37.2839L0.467255 46.568H6.26523L9.20092 37.7242L20.43 20.5137H13.9347L8.90737 29.7611Z" fill="#111111"/>
<path d="M8.5089 46.568H14.4169L16.6187 41.8709H21.3158L20.4719 46.568H26.0496L29.8293 20.5137H22.013L8.5089 46.568ZM24.068 26.0915L22.1598 36.9536H18.9673L24.068 26.0915Z" fill="#111111"/>
<path d="M40.8299 35.4123L41.5638 20.5137H35.2521L26.5918 46.568H31.9127L37.0869 31.0088L36.2795 46.568H42.4445L51.1048 20.5137H45.7839L40.8299 35.4123Z" fill="#111111"/>
<path d="M58.9825 24.6604C59.8999 24.6604 60.2672 25.5778 60.3407 28.6603L65.5145 26.8989C65.5512 23.0091 63.6429 20 59.5699 20C54.359 20 50.9463 24.587 48.1207 32.7702C45.2951 40.9535 46.9831 47.0084 51.3866 47.0084C53.148 47.0084 54.2489 46.3111 55.4964 44.7332L55.1665 46.568H59.313L64.2304 31.8161H56.304L54.6894 36.7334H57.4783L57.3679 37.0637C56.5609 39.5224 55.0929 42.3113 53.5517 42.3113C51.9004 42.3113 51.7536 40.0728 53.9553 33.4675C56.1569 26.8622 57.3312 24.6604 58.9825 24.6604Z" fill="#111111"/>
<path d="M69.661 47.0451C74.2111 47.0451 78.0277 42.8984 80.8165 34.5317C83.4215 26.7521 83.1651 20.0367 76.1924 20.0367C71.6423 20.0367 67.8625 24.1834 65.0368 32.5501C62.3951 40.3664 62.6882 47.0451 69.661 47.0451ZM70.2111 42.3847C68.0096 42.3847 69.4403 37.7243 70.8715 33.284C73.0735 26.4585 74.3576 24.6971 75.6423 24.6971C77.8438 24.6971 76.4131 29.3575 74.9818 33.7978C72.7798 40.6232 71.4957 42.3847 70.2111 42.3847Z" fill="#111111"/>
</g>
<defs>
<clipPath id="clip0_1_128">
<rect width="82.217" height="67" fill="white" transform="translate(0.467224)"/>
</clipPath>
</defs>
</svg>
